<svg xmlns="http://www.w3.org/2000/svg" viewBox="145 712 1166 65" fill-rule="evenodd" clip-rule="evenodd"><path fill="#000B1B" d="M 150 756 L 150 741 L 169.25 740.956 C 190.292 740.909 196.695 740.137 198.691 737.408 C 200.524 734.902 200.321 730.613 198.25 728.085 C 196.567 726.031 195.668 725.944 174.862 725.82 L 153.223 725.692 L 151.612 722.312 C 150.725 720.453 150 718.722 150 718.466 C 150 718.21 160.912 718.002 174.25 718.004 C 196.538 718.007 198.759 718.165 201.701 719.96 C 207.846 723.706 210.122 732.995 206.576 739.853 C 204.909 743.077 204.917 743.286 206.797 745.352 C 209.972 748.843 211 751.587 211 756.566 C 211 762.379 208.215 767.196 203.583 769.394 C 200.754 770.736 196.077 771 175.099 771 L 150 771 L 150 756 Z M 260 744.5 L 260 718 L 263.967 718 L 267.934 718 L 268.217 729.25 L 268.5 740.5 L 286 740.794 C 295.625 740.956 304.962 740.823 306.75 740.499 L 310 739.909 L 310 728.955 L 310 718 L 314 718 L 318 718 L 318 744.5 L 318 771 L 314.033 771 L 310.066 771 L 309.783 759.75 L 309.5 748.5 L 289 748.5 L 268.5 748.5 L 268.217 759.75 L 267.934 771 L 263.967 771 L 260 771 L 260 744.5 Z M 472 756.109 L 472 741.219 L 475.531 740.807 C 477.472 740.58 479.272 740.606 479.531 740.864 C 479.789 741.122 480 746.208 480 752.167 L 480 763 L 497.118 763 L 514.235 763 L 518.207 759.028 L 522.178 755.057 L 521.839 743.949 L 521.5 732.842 L 517.765 729.421 L 514.029 726 L 501.765 725.801 C 472.542 725.326 474.877 725.564 473.407 722.912 C 470.586 717.82 470.356 717.871 494.326 718.197 L 516.653 718.5 L 520.771 721.228 C 523.036 722.728 526.152 726.103 527.695 728.728 C 530.311 733.178 530.5 734.242 530.493 744.5 C 530.488 753.832 530.161 756.107 528.341 759.5 C 525.649 764.517 522.512 767.47 517.768 769.452 C 514.823 770.683 509.753 771 493.032 771 L 472 771 L 472 756.109 Z M 579 756.642 L 579 742.283 L 599.8 741.784 C 612.838 741.471 621.416 740.848 622.788 740.113 C 626.526 738.113 627.343 731.213 624.252 727.75 C 622.861 726.192 620.461 726 602.371 726 L 582.051 726 L 580.526 723.05 C 579.687 721.427 579 719.627 579 719.05 C 579 718.347 586.585 718 601.923 718 L 624.847 718 L 627.959 720.619 C 629.671 722.06 631.731 724.512 632.536 726.069 C 634.424 729.72 634.413 737.3 632.515 740.971 C 630.794 744.3 626.544 747.574 622.689 748.542 C 621.21 748.913 620 749.437 620 749.706 C 620 749.975 623.219 754.313 627.154 759.347 C 631.088 764.381 634.743 769.062 635.276 769.75 C 636.022 770.712 635.101 771 631.276 771 L 626.307 771 L 617.634 760 L 608.961 749 L 597.981 749 L 587 749 L 587 760 L 587 771 L 583 771 L 579 771 L 579 756.642 Z M 683 744.5 L 683 718 L 687 718 L 691 718 L 691 744.5 L 691 771 L 687 771 L 683 771 L 683 744.5 Z M 740 744.5 L 740 718 L 744.259 718 C 748.467 718 748.766 718.248 769 738.5 C 780.265 749.775 789.823 759 790.241 759 C 790.658 759 791 749.775 791 738.5 L 791 718 L 795 718 L 799 718 L 799 744.5 L 799 771 L 794.741 771 C 790.533 771 790.234 770.752 770 750.5 C 758.735 739.225 749.177 730 748.759 730 C 748.342 730 748 739.225 748 750.5 L 748 771 L 744 771 L 740 771 L 740 744.5 Z M 963 748.632 L 963 726.263 L 959.25 725.782 C 957.188 725.517 952.023 725.432 947.773 725.592 C 943.524 725.753 939.864 725.573 939.641 725.192 C 939.418 724.811 938.922 723.038 938.538 721.25 L 937.841 718 L 966.981 718 L 996.121 718 L 995.81 721.75 L 995.5 725.5 L 987 725.546 C 982.325 725.571 976.812 725.683 974.75 725.796 L 971 726 L 971 748.5 L 971 771 L 967 771 L 963 771 L 963 748.632 Z M 1042 744.5 L 1042 718 L 1045.967 718 L 1049.934 718 L 1050.217 729.25 L 1050.5 740.5 L 1071.5 740.5 L 1092.5 740.5 L 1092.783 729.25 L 1093.066 718 L 1097.033 718 L 1101 718 L 1101 744.5 L 1101 771 L 1097.033 771 L 1093.066 771 L 1092.783 759.75 L 1092.5 748.5 L 1071.5 748.5 L 1050.5 748.5 L 1050.217 759.75 L 1049.934 771 L 1045.967 771 L 1042 771 L 1042 744.5 Z M 1247 744.5 L 1247 718 L 1251.241 718 C 1255.426 718 1255.759 718.276 1276.241 738.741 L 1297 759.482 L 1297 738.741 L 1297 718 L 1300.959 718 L 1304.918 718 L 1305.209 737.25 C 1305.369 747.837 1305.351 759.763 1305.168 763.75 L 1304.836 771 L 1300.542 771 C 1296.265 771 1296.171 770.919 1276.512 750.5 C 1265.657 739.225 1256.376 730 1255.888 730 C 1255.4 730 1255 739.225 1255 750.5 L 1255 771 L 1251 771 L 1247 771 L 1247 744.5 Z M 201.171 761.345 C 203.565 759.179 203.524 753.869 201.09 750.861 C 199.211 748.538 198.85 748.495 178.59 748.193 L 158 747.886 L 158 755.443 L 158 763 L 178.671 763 C 196.503 763 199.594 762.773 201.171 761.345 Z"/><path fill="#0358FC" d="M 420.143 771.031 C 419.18 770.363 414.321 762.272 404.51 745 C 400.292 737.575 396.466 731.111 396.006 730.636 C 395.547 730.16 393.797 732.185 392.117 735.136 C 390.437 738.086 385.111 747.345 380.281 755.71 L 371.5 770.92 L 366.643 770.96 C 362.967 770.99 361.912 770.672 362.304 769.651 C 363.085 767.615 391.033 719.639 392.056 718.578 C 392.545 718.07 394.137 717.603 395.593 717.539 C 398.689 717.404 398.33 716.887 412.946 742.5 C 418.595 752.4 424.519 762.667 426.109 765.316 C 427.699 767.965 429 770.281 429 770.461 C 429 771.055 420.927 771.574 420.143 771.031 Z M 843.192 765.153 C 845.011 761.937 851.9 750.013 858.5 738.656 L 870.5 718.005 L 874 718.02 L 877.5 718.034 L 892.25 743.929 C 900.362 758.171 907 770.113 907 770.466 C 907 770.82 904.91 770.972 902.356 770.805 L 897.712 770.5 L 886.106 750.27 C 879.723 739.144 874.201 730.032 873.836 730.02 C 873.471 730.009 871.494 733.038 869.444 736.75 C 867.393 740.462 864.257 745.975 862.473 749 C 860.69 752.025 857.068 758.212 854.425 762.75 L 849.619 771 L 844.751 771 L 839.884 771 L 843.192 765.153 Z M 1145.629 762.25 C 1148.232 757.438 1152.01 750.8 1154.023 747.5 C 1156.036 744.2 1160.729 736.188 1164.451 729.696 L 1171.219 717.892 L 1174.831 718.196 C 1178.435 718.499 1178.479 718.561 1193.163 744 C 1201.259 758.025 1207.909 769.862 1207.941 770.305 C 1207.974 770.747 1205.896 770.972 1203.325 770.805 L 1198.65 770.5 L 1193.996 762.5 C 1191.436 758.1 1186.259 749.189 1182.492 742.699 C 1178.725 736.208 1175.321 730.698 1174.927 730.455 C 1174.533 730.211 1168.875 739.232 1162.355 750.5 L 1150.5 770.989 L 1145.698 770.994 L 1140.895 771 L 1145.629 762.25 Z M 391.517 766.375 C 389.053 763.911 389.93 758.881 393.135 757.091 C 395.494 755.773 396.043 755.798 398.385 757.333 C 400.367 758.631 401 759.88 401 762.488 C 401 764.867 400.403 766.249 399.066 766.965 C 396.266 768.463 393.38 768.238 391.517 766.375 Z M 869.655 766.171 C 867.43 763.712 867.568 760.432 870 758 C 872.63 755.37 875.155 755.472 877.826 758.314 C 880.404 761.059 880.546 762.776 878.443 765.777 C 876.521 768.522 871.967 768.726 869.655 766.171 Z M 1170.655 766.171 C 1168.43 763.712 1168.568 760.432 1171 758 C 1173.625 755.375 1175.567 755.476 1178.481 758.39 C 1180.894 760.803 1180.987 763.87 1178.733 766.75 C 1177.283 768.604 1172.549 768.264 1170.655 766.171 Z"/></svg>