<svg xmlns="http://www.w3.org/2000/svg" width="1116" height="375" viewBox="0 0 1116 375" role="img" aria-label="Terminal-style profile card for Bhadrinathan: Technical Lead at BloomSkillTech, 21 technologies across 3 categories">
  <title>bhadri@github — 21 technologies</title>
  <defs>
    <linearGradient id="artg" x1="0" y1="0" x2="1" y2="1">
      <stop offset="0" stop-color="#4b8dff"/>
      <stop offset="1" stop-color="#8ab4ff"/>
    </linearGradient>
    <clipPath id="win"><rect width="1116" height="375" rx="10"/></clipPath>
  </defs>
  <g clip-path="url(#win)">
    <rect width="1116" height="375" fill="#0d1424"/>
    
  <path d="M0 10 a10 10 0 0 1 10 -10 h1096 a10 10 0 0 1 10 10 v22 h-1116 z" fill="#161f33"/>
  <circle cx="28" cy="16" r="5" fill="#ff5f57"/><circle cx="43" cy="16" r="5" fill="#febc2e"/><circle cx="58" cy="16" r="5" fill="#28c840"/>
  <text x="558" y="20" text-anchor="middle" fill="#8ca0bd" font-family="ui-monospace,SFMono-Regular,'SF Mono',Menlo,Consolas,'DejaVu Sans Mono',monospace" font-size="11.5">bhadri@github: ~</text>
  <line x1="0" y1="32" x2="1116" y2="32" stroke="rgba(255,255,255,0.09)"/>
    <rect x="22" y="159.5" width="8" height="8" rx="1.5" fill="url(#artg)"/><rect x="31.5" y="159.5" width="8" height="8" rx="1.5" fill="url(#artg)"/><rect x="107.5" y="159.5" width="8" height="8" rx="1.5" fill="url(#artg)"/><rect x="117" y="159.5" width="8" height="8" rx="1.5" fill="url(#artg)"/><rect x="126.5" y="159.5" width="8" height="8" rx="1.5" fill="url(#artg)"/><rect x="136" y="159.5" width="8" height="8" rx="1.5" fill="url(#artg)"/><rect x="145.5" y="159.5" width="8" height="8" rx="1.5" fill="url(#artg)"/><rect x="22" y="169" width="8" height="8" rx="1.5" fill="url(#artg)"/><rect x="31.5" y="169" width="8" height="8" rx="1.5" fill="url(#artg)"/><rect x="145.5" y="169" width="8" height="8" rx="1.5" fill="url(#artg)"/><rect x="155" y="169" width="8" height="8" rx="1.5" fill="url(#artg)"/><rect x="22" y="178.5" width="8" height="8" rx="1.5" fill="url(#artg)"/><rect x="31.5" y="178.5" width="8" height="8" rx="1.5" fill="url(#artg)"/><rect x="145.5" y="178.5" width="8" height="8" rx="1.5" fill="url(#artg)"/><rect x="155" y="178.5" width="8" height="8" rx="1.5" fill="url(#artg)"/><rect x="22" y="188" width="8" height="8" rx="1.5" fill="url(#artg)"/><rect x="31.5" y="188" width="8" height="8" rx="1.5" fill="url(#artg)"/><rect x="41" y="188" width="8" height="8" rx="1.5" fill="url(#artg)"/><rect x="50.5" y="188" width="8" height="8" rx="1.5" fill="url(#artg)"/><rect x="60" y="188" width="8" height="8" rx="1.5" fill="url(#artg)"/><rect x="117" y="188" width="8" height="8" rx="1.5" fill="url(#artg)"/><rect x="126.5" y="188" width="8" height="8" rx="1.5" fill="url(#artg)"/><rect x="136" y="188" width="8" height="8" rx="1.5" fill="url(#artg)"/><rect x="145.5" y="188" width="8" height="8" rx="1.5" fill="url(#artg)"/><rect x="22" y="197.5" width="8" height="8" rx="1.5" fill="url(#artg)"/><rect x="31.5" y="197.5" width="8" height="8" rx="1.5" fill="url(#artg)"/><rect x="69.5" y="197.5" width="8" height="8" rx="1.5" fill="url(#artg)"/><rect x="79" y="197.5" width="8" height="8" rx="1.5" fill="url(#artg)"/><rect x="145.5" y="197.5" width="8" height="8" rx="1.5" fill="url(#artg)"/><rect x="155" y="197.5" width="8" height="8" rx="1.5" fill="url(#artg)"/><rect x="22" y="207" width="8" height="8" rx="1.5" fill="url(#artg)"/><rect x="31.5" y="207" width="8" height="8" rx="1.5" fill="url(#artg)"/><rect x="69.5" y="207" width="8" height="8" rx="1.5" fill="url(#artg)"/><rect x="79" y="207" width="8" height="8" rx="1.5" fill="url(#artg)"/><rect x="145.5" y="207" width="8" height="8" rx="1.5" fill="url(#artg)"/><rect x="155" y="207" width="8" height="8" rx="1.5" fill="url(#artg)"/><rect x="22" y="216.5" width="8" height="8" rx="1.5" fill="url(#artg)"/><rect x="31.5" y="216.5" width="8" height="8" rx="1.5" fill="url(#artg)"/><rect x="69.5" y="216.5" width="8" height="8" rx="1.5" fill="url(#artg)"/><rect x="79" y="216.5" width="8" height="8" rx="1.5" fill="url(#artg)"/><rect x="145.5" y="216.5" width="8" height="8" rx="1.5" fill="url(#artg)"/><rect x="155" y="216.5" width="8" height="8" rx="1.5" fill="url(#artg)"/><rect x="22" y="226" width="8" height="8" rx="1.5" fill="url(#artg)"/><rect x="31.5" y="226" width="8" height="8" rx="1.5" fill="url(#artg)"/><rect x="41" y="226" width="8" height="8" rx="1.5" fill="url(#artg)"/><rect x="50.5" y="226" width="8" height="8" rx="1.5" fill="url(#artg)"/><rect x="60" y="226" width="8" height="8" rx="1.5" fill="url(#artg)"/><rect x="107.5" y="226" width="8" height="8" rx="1.5" fill="url(#artg)"/><rect x="117" y="226" width="8" height="8" rx="1.5" fill="url(#artg)"/><rect x="126.5" y="226" width="8" height="8" rx="1.5" fill="url(#artg)"/><rect x="136" y="226" width="8" height="8" rx="1.5" fill="url(#artg)"/><rect x="145.5" y="226" width="8" height="8" rx="1.5" fill="url(#artg)"/>
    <text x="194.5" y="66.5" font-family="ui-monospace,SFMono-Regular,'SF Mono',Menlo,Consolas,'DejaVu Sans Mono',monospace" font-size="12.5" font-weight="700" fill="#4b8dff">bhadri<tspan fill="#5b6b85" font-weight="400">@</tspan>github</text>
    <text x="194.5" y="85" font-family="ui-monospace,SFMono-Regular,'SF Mono',Menlo,Consolas,'DejaVu Sans Mono',monospace" font-size="12.5" fill="#5b6b85" xml:space="preserve">────────────────────</text>
    <text x="194.5" y="103.5" font-family="ui-monospace,SFMono-Regular,'SF Mono',Menlo,Consolas,'DejaVu Sans Mono',monospace" font-size="12.5" font-weight="700" fill="#4b8dff">Role</text>
    <text x="287.5" y="103.5" font-family="ui-monospace,SFMono-Regular,'SF Mono',Menlo,Consolas,'DejaVu Sans Mono',monospace" font-size="12.5" fill="#c8d4e6">Technical Lead @ BloomSkillTech</text>
    <text x="194.5" y="122" font-family="ui-monospace,SFMono-Regular,'SF Mono',Menlo,Consolas,'DejaVu Sans Mono',monospace" font-size="12.5" font-weight="700" fill="#4b8dff">Host</text>
    <text x="287.5" y="122" font-family="ui-monospace,SFMono-Regular,'SF Mono',Menlo,Consolas,'DejaVu Sans Mono',monospace" font-size="12.5" fill="#c8d4e6">Salem, Tamil Nadu, India · remote-friendly</text>
    <text x="194.5" y="140.5" font-family="ui-monospace,SFMono-Regular,'SF Mono',Menlo,Consolas,'DejaVu Sans Mono',monospace" font-size="12.5" font-weight="700" fill="#4b8dff">Uptime</text>
    <text x="287.5" y="140.5" font-family="ui-monospace,SFMono-Regular,'SF Mono',Menlo,Consolas,'DejaVu Sans Mono',monospace" font-size="12.5" fill="#c8d4e6">4 years shipping production software</text>
    <text x="194.5" y="159" font-family="ui-monospace,SFMono-Regular,'SF Mono',Menlo,Consolas,'DejaVu Sans Mono',monospace" font-size="12.5" font-weight="700" fill="#4b8dff">Kernel</text>
    <text x="287.5" y="159" font-family="ui-monospace,SFMono-Regular,'SF Mono',Menlo,Consolas,'DejaVu Sans Mono',monospace" font-size="12.5" fill="#c8d4e6">Linux — namespaces, cgroups v2, seccomp BPF, Landlock</text>
    <text x="194.5" y="177.5" font-family="ui-monospace,SFMono-Regular,'SF Mono',Menlo,Consolas,'DejaVu Sans Mono',monospace" font-size="12.5" font-weight="700" fill="#4b8dff">Shell</text>
    <text x="287.5" y="177.5" font-family="ui-monospace,SFMono-Regular,'SF Mono',Menlo,Consolas,'DejaVu Sans Mono',monospace" font-size="12.5" fill="#c8d4e6">rust · python3</text>
    <text x="194.5" y="196" font-family="ui-monospace,SFMono-Regular,'SF Mono',Menlo,Consolas,'DejaVu Sans Mono',monospace" font-size="12.5" font-weight="700" fill="#4b8dff">Packages</text>
    <text x="287.5" y="196" font-family="ui-monospace,SFMono-Regular,'SF Mono',Menlo,Consolas,'DejaVu Sans Mono',monospace" font-size="12.5" fill="#c8d4e6">fastapi-querybuilder (16K+ installs), fastapi_sse_events</text>
    <text x="194.5" y="224.675" font-family="ui-monospace,SFMono-Regular,'SF Mono',Menlo,Consolas,'DejaVu Sans Mono',monospace" font-size="12.5" font-weight="700" fill="#4b8dff">Core</text>
    <text x="287.5" y="224.675" font-family="ui-monospace,SFMono-Regular,'SF Mono',Menlo,Consolas,'DejaVu Sans Mono',monospace" font-size="12.5" fill="#c8d4e6">FastAPI, Python, Docker, PostgreSQL, Linux, REST &amp; SSE APIs, SQLAlchemy, Redis</text>
    <text x="194.5" y="243.175" font-family="ui-monospace,SFMono-Regular,'SF Mono',Menlo,Consolas,'DejaVu Sans Mono',monospace" font-size="12.5" font-weight="700" fill="#4b8dff">AI</text>
    <text x="287.5" y="243.175" font-family="ui-monospace,SFMono-Regular,'SF Mono',Menlo,Consolas,'DejaVu Sans Mono',monospace" font-size="12.5" fill="#c8d4e6">RAG (pgvector), LangChain, MCP Servers, LangGraph, OpenAI API</text>
    <text x="194.5" y="261.675" font-family="ui-monospace,SFMono-Regular,'SF Mono',Menlo,Consolas,'DejaVu Sans Mono',monospace" font-size="12.5" font-weight="700" fill="#4b8dff">Also</text>
    <text x="287.5" y="261.675" font-family="ui-monospace,SFMono-Regular,'SF Mono',Menlo,Consolas,'DejaVu Sans Mono',monospace" font-size="12.5" fill="#c8d4e6">React, Rust, TypeScript, GitHub Actions, Nginx/Traefik, Pytest, Celery, Go</text>
    <text x="194.5" y="280.175" font-family="ui-monospace,SFMono-Regular,'SF Mono',Menlo,Consolas,'DejaVu Sans Mono',monospace" font-size="12.5" font-weight="700" fill="#4b8dff">Practice</text>
    <text x="287.5" y="280.175" font-family="ui-monospace,SFMono-Regular,'SF Mono',Menlo,Consolas,'DejaVu Sans Mono',monospace" font-size="12.5" fill="#c8d4e6">System design (HLD/LLD), Code review, Automated testing, CI/CD, Phased delivery</text>
    <text x="194.5" y="308.85" font-family="ui-monospace,SFMono-Regular,'SF Mono',Menlo,Consolas,'DejaVu Sans Mono',monospace" font-size="12.5" font-weight="700" fill="#4b8dff">Web</text>
    <text x="287.5" y="308.85" font-family="ui-monospace,SFMono-Regular,'SF Mono',Menlo,Consolas,'DejaVu Sans Mono',monospace" font-size="12.5" fill="#c8d4e6">bha3.in · github.com/bhadri01</text>
    <rect x="194.5" y="342" width="13" height="13" rx="3" fill="#009688"/><rect x="212.5" y="342" width="13" height="13" rx="3" fill="#0358fc"/><rect x="230.5" y="342" width="13" height="13" rx="3" fill="#149ECA"/>
  </g>
  <rect x="0.5" y="0.5" width="1115" height="374" rx="9.5" fill="none" stroke="rgba(255,255,255,0.09)"/>
</svg>